<svg width="48" height="48" viewBox="0 0 48 48" fill="none" xmlns="http://www.w3.org/2000/svg">
<path fill-rule="evenodd" clip-rule="evenodd" d="M9.11548 14.9104C7.47131 14.0775 5.97857 14.347 5.43772 14.5859C5.53769 14.4123 5.64514 14.2209 5.76103 14.0145L5.76119 14.0142L5.76122 14.0142L5.76126 14.0141C6.99348 11.8193 9.17873 7.92695 13.4423 5.7025C18.1654 3.23825 20.4057 2.5115 26.5443 2.52503C32.6829 2.53855 37.9291 6.47321 38.1995 7.46025C38.4699 8.4473 37.8209 9.89406 36.5635 11.138C35.3543 12.3342 34.2201 12.2551 32.7282 12.1511L32.5477 12.1386C31.4522 12.0637 31.1631 11.9405 30.687 11.7377C30.3775 11.6059 29.989 11.4404 29.2485 11.2327C27.3707 10.7058 26.9911 10.8268 26.0599 11.1237L26.0575 11.1245C25.3111 11.3625 24.6107 12.1791 24.3538 12.5577C23.9572 13.387 23.1369 15.0186 23.0288 14.9104C22.9608 14.8425 23.0295 14.3952 23.1129 13.8522C23.1954 13.3149 23.2924 12.6838 23.2857 12.2332C23.2722 11.3273 24.4485 10.4214 25.8141 9.93463C26.505 9.68839 27.597 10.014 28.7961 10.3716C29.4934 10.5796 30.2268 10.7983 30.9387 10.9217C31.0411 10.9394 31.139 10.9568 31.2333 10.9736C32.0724 11.1226 32.6242 11.2206 33.5212 11.0704L33.6405 11.0505C34.3505 10.9326 34.8229 10.8542 35.4142 10.4079L35.477 10.3606C35.7697 10.1406 35.9474 10.007 36.1443 9.65068C36.4282 9.13688 36.5154 8.81205 36.4553 8.23096C36.4297 7.98318 36.321 7.65686 36.2424 7.44536C36.2929 7.74953 36.2182 8.34228 35.7116 9.29913C34.8598 10.9082 31.5336 10.5566 28.4643 9.71829C26.1791 9.09415 25.7602 9.18202 25.4051 9.2565C25.2833 9.28206 25.169 9.30604 24.9893 9.29913C24.3886 9.27603 23.2902 9.68674 22.8124 9.93463C21.2098 10.3798 20.0487 13.4957 19.1967 15.7821C18.8843 16.6207 18.6133 17.3477 18.3775 17.7904C17.6398 19.1751 16.3018 18.883 15.6352 18.7375C15.5077 18.7096 15.4047 18.6872 15.3352 18.6828C15.1272 18.6698 14.1562 18.0378 12.9757 17.2693C11.7012 16.4396 10.1824 15.4509 9.11548 14.9104ZM21.271 13.0445C21.4657 12.2873 22.3798 11.458 22.8124 11.138C22.6457 12.702 22.2202 16.0895 21.8524 17.1279C21.3927 18.4259 19.8242 19.6969 18.5938 20.2648C17.6095 20.7191 15.9662 20.4541 15.2676 20.2648L13.253 19.3859C13.0051 19.2056 12.1848 18.6855 10.8868 18.0473C9.60031 17.4148 8.60285 17.3858 7.73265 17.3605C7.50531 17.3539 7.28664 17.3475 7.07378 17.3307C6.2517 17.2658 4.92842 17.7814 4.36955 18.0473L4.42363 18.169C4.39659 18.2051 4.44256 18.2691 4.84279 18.2366C4.9942 18.2243 5.28062 18.2059 5.62819 18.1835C6.42902 18.1318 7.55452 18.0592 8.10139 17.9932C8.88562 17.8986 12.3741 18.9668 11.9008 19.5347C11.5222 19.989 10.9408 22.1217 10.6975 23.1313C10.6028 24.3752 10.2945 27.3878 9.81858 29.4862C9.22365 32.1093 6.45181 33.786 5.73519 33.5832C5.16189 33.4209 4.11716 29.6936 3.66645 27.8502C3.24459 27.2336 3.32842 23.5099 3.42307 21.7251C3.52223 20.7651 3.88009 18.4557 4.51828 16.898C5.08385 15.5177 6.46492 15.8906 7.63045 16.2054C8.10895 16.3346 8.55112 16.4541 8.88562 16.4383C10.0349 16.3842 13.4423 18.3313 14.24 18.8451C15.0378 19.3589 16.9983 19.4941 17.7285 19.3318C18.3126 19.202 18.8823 18.2501 19.0941 17.7904C19.7386 16.5239 21.0763 13.8017 21.271 13.0445ZM39.0919 33.5697C39.8166 33.6779 39.3938 34.6965 39.0919 35.1922L37.875 36.9094V38.3968L38.0237 38.5725L39.0919 37.2339L40.755 35.7872L42.2693 34.2998L42.6615 33.2452C42.5353 32.2987 42.2802 30.3733 42.2693 30.2435C42.2558 30.0812 42.4046 28.6345 42.6615 28.4046C42.867 28.2207 43.1527 28.7246 43.2699 28.9995C43.5088 30.4688 43.9892 33.4399 44.0001 33.5697C44.0077 33.6613 43.4806 34.4516 42.9667 35.222C42.5706 35.8158 42.1825 36.3977 42.053 36.639C41.815 37.0825 39.9798 38.9601 39.0919 39.8435L36.6851 41.6013L36.1848 40.3168C36.0181 40.1275 35.6954 39.6083 35.4682 39.0999C35.2689 38.6539 35.7089 37.8284 36.0498 37.1888C36.1947 36.9169 36.3217 36.6786 36.3741 36.5173C36.5147 36.0846 37.4333 35.3004 37.875 34.9624L38.9972 33.5697C38.7268 33.5246 38.3671 33.4615 39.0919 33.5697ZM35.7386 16.1139C36.3741 15.1494 37.6586 13.1392 37.7127 12.8147C37.7668 12.4902 37.9246 11.039 37.9967 10.3539C37.5775 10.7956 36.6121 11.7493 36.1037 12.0305C35.4682 12.3821 33.3319 13.1528 30.7358 12.4091C30.414 12.3169 30.1182 12.2297 29.8449 12.1492C27.9139 11.58 27.1115 11.3435 26.2468 12.0305C25.4571 12.6579 24.169 14.5725 23.6237 15.4514L21.5144 19.359C20.987 19.9494 19.7025 21.1546 18.7831 21.2519C17.6338 21.3736 16.2276 21.4412 15.1053 21.0221C14.2075 20.6868 13.5324 20.3866 13.307 20.2784C12.8022 20.8553 11.7575 22.4661 11.6169 24.2942C11.4411 26.5793 10.6434 30.5951 10.3459 31.2035C10.0484 31.812 9.03433 33.6779 8.52053 33.9483C8.10949 34.1647 7.12334 34.8948 6.68165 35.2328C6.70437 35.2677 6.72725 35.3028 6.75029 35.3382C7.46295 36.4322 8.33042 37.7639 9.60222 39.0728C11.15 40.6659 12.1785 41.4419 14.1048 42.5478C15.5726 43.3905 17.7149 44.2109 18.0665 44.3055C18.3477 44.3813 19.3194 44.6165 19.7701 44.7247L21.5144 41.696L23.8671 39.0728C23.5065 37.4638 22.6015 34.0835 21.8659 33.4345C21.1304 32.7855 18.8282 28.9455 17.769 27.1066C17.4715 27.67 16.928 29.0374 17.1335 30.0001C17.339 30.9628 18.1476 34.3855 18.5262 35.9765L18.8372 38.1399L18.5262 40.3168L18.0665 41.5607C18.1115 40.2672 18.1746 37.5801 18.0665 37.1799C17.9583 36.7797 17.2642 34.3089 16.9307 33.1235C16.6513 32.3528 16.1329 30.4409 16.2952 28.959C16.498 27.1066 18.6614 24.1049 19.7025 23.8345C19.9594 23.6182 20.5868 23.2504 21.0411 23.51C21.609 23.8345 22.7989 24.9567 22.9611 25.1731C23.1234 25.3894 24.3268 26.3359 24.4349 26.39C24.4572 26.4011 24.4863 26.4191 24.5216 26.4409C24.6578 26.5251 24.8858 26.666 25.1651 26.6875C25.1979 26.69 25.2357 26.6934 25.2775 26.6973C25.6835 26.7346 26.4702 26.8068 26.8012 26.39C26.9208 26.2393 27.0332 26.0276 27.1512 25.8053C27.3932 25.3495 27.6587 24.8495 28.0586 24.7404C28.3447 24.6624 28.6809 24.6031 28.9618 24.5536C29.265 24.5001 29.5038 24.458 29.5459 24.4159C29.6271 24.3348 29.884 23.9021 29.8299 23.6993C29.7758 23.4965 29.8029 23.4424 30.1544 23.4153C30.506 23.3883 31.0062 23.226 31.1009 22.9556C31.1766 22.7393 31.3668 22.2886 31.4524 22.0903C31.6733 22.1624 32.1555 22.312 32.3178 22.3336C32.5206 22.3607 33.1696 22.3607 33.3454 22.266C33.5212 22.1714 33.7781 21.0086 33.7781 20.941C33.7781 20.8734 33.8727 19.1156 34.1296 18.7911C34.3351 18.5315 34.8102 17.5832 35.022 17.1415C35.1347 16.8936 35.1383 16.3032 34.2513 15.9246C33.3643 15.546 32.444 15.217 32.0879 15.1133L31.8716 14.9916C31.8716 14.9916 32.5206 14.824 32.6288 14.8564C32.7369 14.8889 33.6113 15.0592 34.035 15.1404L35.7386 16.1139Z" fill="white"/>
<path d="M22.9474 44.964C22.8096 44.964 21.5917 44.6939 21 44.5589C21.6624 42.115 22.762 40.8323 23.4641 39.9816C23.9754 39.3621 25.9414 37.7132 26.9218 37.0111L26.0342 36.3225C25.8664 36.1335 25.5016 35.669 25.385 35.3233C25.2393 34.8912 25.6367 34.4997 25.6897 34.3782C25.7427 34.2566 25.6235 33.7976 25.597 33.6355C25.5758 33.5059 25.6147 33.4285 25.6367 33.406C25.8001 33.46 26.1084 33.5356 26.0342 33.406C25.9414 33.244 25.6235 32.5418 25.6367 32.3258C25.65 32.1098 26.2064 31.7857 26.2859 31.6237C26.3654 31.4616 26.1799 31.4346 26.0342 31.1241C25.9176 30.8756 25.9856 30.6335 26.0342 30.5435L27.3192 29.8279L27.6504 29.5983L27.8226 28.3291C27.8933 27.969 28.175 27.0356 28.7367 26.1822C29.4389 25.1155 31.9294 23.8868 35.6918 24.0083C38.7017 24.1056 40.7701 26.2092 41.4281 27.2489C41.9262 27.4974 41.883 28.7207 41.7991 29.3013L41.9978 31.9612C42.0402 33.5707 41.4679 34.2161 41.1764 34.3376L38.7256 36.444L38.7786 36.201L39.2555 35.4853L39.5999 34.8777C39.6485 34.7337 39.7536 34.3322 39.7854 33.8786C39.8172 33.4249 39.5867 33.0414 39.4674 32.9064C39.2555 32.6147 38.9729 32.6679 38.858 32.7309C38.6249 32.8389 38.4253 33.2169 38.3546 33.3925C37.8883 34.1486 37.6481 34.2386 37.5863 34.1891C37.4803 34.1675 37.4803 33.9101 37.4935 33.784C37.4193 33.4168 37.1623 33.253 37.0431 33.2169L36.9106 33.1764L36.3807 33.1899L35.9965 33.3385L35.6918 33.568C35.683 33.604 35.6627 33.6841 35.6521 33.7165C35.6415 33.7489 35.7536 33.757 35.811 33.757C36.1157 33.685 36.7622 33.568 36.9106 33.676C37.0961 33.8111 37.0166 34.2296 36.9636 34.4457C36.9106 34.6617 36.7251 34.8102 36.5132 35.0128C36.3436 35.1748 35.8508 35.3233 35.6256 35.3773C35.0162 35.5124 34.9499 35.3908 34.8042 35.3773C34.6876 35.3665 34.5172 35.1928 34.4465 35.1073C34.3891 34.9813 34.2505 34.7265 34.1551 34.7157C34.0597 34.7049 33.9828 34.9362 33.9564 35.0533C33.9034 35.5529 34.3008 35.8229 34.6055 35.8904C34.8493 35.9444 35.5284 35.7239 35.8375 35.6069H36.235C35.9921 35.9489 35.464 36.6925 35.2944 36.9301C35.1248 37.1677 34.7998 37.9833 34.6585 38.3613C34.4333 38.2668 33.914 38.0535 33.6384 37.9563C33.3629 37.8591 32.7287 37.9968 32.4461 38.0778L30.5914 38.7799C30.1322 38.9735 29.2507 39.3713 29.3991 39.4145C29.5475 39.4577 30.0438 39.3515 30.2735 39.293C31.0242 38.996 32.7058 38.4046 33.4264 38.4154C34.1471 38.4262 34.8837 39.149 35.1619 39.509C35.7316 39.9006 35.8375 41.5884 35.5858 42.088C35.3341 42.5876 33.7046 43.1142 32.2341 43.8028C31.0577 44.3537 28.7941 44.7615 27.8094 44.8965C27.8094 44.8965 27.7166 44.9235 27.5312 44.9235C27.3457 44.9235 27.4649 44.7615 27.4649 44.7615C27.4649 44.7615 27.7299 44.3834 27.8094 44.2889C27.9328 44.1421 29.0414 43.3437 29.2136 43.2222C29.3859 43.1007 30.2205 42.9116 30.4192 42.8846C30.6179 42.8576 31.5188 43.2222 31.6512 43.3437C31.7837 43.4652 32.3799 43.5057 32.4726 43.4517C32.5653 43.3977 32.4461 43.1412 32.3799 43.0332C32.3136 42.9251 31.8632 42.6956 31.691 42.5876C31.5188 42.4796 30.7769 42.385 30.6312 42.358C30.4854 42.331 30.4059 41.0888 30.3397 41.0483C30.2735 41.0078 30.1542 41.4129 30.088 41.5209C30.035 41.6073 30.0659 42.223 30.088 42.5201C29.9732 42.5786 29.4998 42.7928 28.5248 43.1817C27.306 43.6678 26.988 44.883 26.882 44.964C26.776 45.045 23.1196 44.964 22.9474 44.964Z" fill="white"/>
</svg>
