<svg width="48" height="48" viewBox="0 0 48 48" fill="none" xmlns="http://www.w3.org/2000/svg">
<path fill-rule="evenodd" clip-rule="evenodd" d="M9.11524 14.9105C7.47106 14.0776 5.97833 14.3471 5.43748 14.586C5.53744 14.4124 5.6449 14.221 5.76078 14.0146L5.76094 14.0143L5.76098 14.0142L5.76101 14.0142C6.99323 11.8194 9.17848 7.92701 13.442 5.70256C18.1652 3.23831 20.4054 2.51157 26.544 2.52509C32.6826 2.53861 37.9289 6.47327 38.1993 7.46031C38.4697 8.44736 37.8207 9.89413 36.5632 11.1381C35.3541 12.3342 34.2199 12.2552 32.728 12.1511L32.5474 12.1386C31.452 12.0637 31.1628 11.9406 30.6868 11.7378C30.3773 11.606 29.9888 11.4405 29.2483 11.2327C27.3705 10.7059 26.9909 10.8269 26.0597 11.1238L26.0573 11.1246C25.3109 11.3625 24.6105 12.1792 24.3536 12.5578C23.957 13.3871 23.1367 15.0186 23.0285 14.9105C22.9606 14.8425 23.0293 14.3953 23.1127 13.8522C23.1952 13.3149 23.2922 12.6838 23.2854 12.2333C23.2719 11.3274 24.4482 10.4215 25.8139 9.93469C26.5047 9.68845 27.5967 10.0141 28.7959 10.3717C29.4931 10.5796 30.2266 10.7983 30.9384 10.9217C31.0409 10.9395 31.1388 10.9569 31.2331 10.9736C32.0722 11.1227 32.624 11.2207 33.521 11.0705L33.6402 11.0506C34.3503 10.9327 34.8227 10.8542 35.4139 10.4079L35.4767 10.3607C35.7694 10.1406 35.9471 10.0071 36.1441 9.65074C36.428 9.13694 36.5152 8.81211 36.455 8.23102C36.4294 7.98324 36.3207 7.65692 36.2421 7.44542C36.2927 7.7496 36.218 8.34234 35.7114 9.29919C34.8596 10.9082 31.5333 10.5567 28.464 9.71835C26.1789 9.09421 25.76 9.18209 25.4049 9.25657C25.283 9.28212 25.1687 9.3061 24.9891 9.29919C24.3883 9.27609 23.2899 9.6868 22.8122 9.93469C21.2096 10.3799 20.0485 13.4958 19.1965 15.7822C18.884 16.6208 18.6131 17.3478 18.3772 17.7905C17.6395 19.1751 16.3016 18.8831 15.635 18.7376C15.5074 18.7097 15.4045 18.6872 15.335 18.6829C15.1269 18.6699 14.156 18.0378 12.9755 17.2693C11.701 16.4397 10.1822 15.451 9.11524 14.9105ZM21.2708 13.0446C21.4655 12.2874 22.3795 11.4581 22.8122 11.1381C22.6454 12.702 22.22 16.0895 21.8522 17.128C21.3925 18.426 19.824 19.697 18.5936 20.2649C17.6092 20.7192 15.966 20.4542 15.2674 20.2649L13.2527 19.386C13.0048 19.2057 12.1845 18.6856 10.8865 18.0474C9.60006 17.4149 8.60261 17.3859 7.73241 17.3605C7.50506 17.3539 7.2864 17.3476 7.07354 17.3308C6.25145 17.2659 4.92818 17.7815 4.3693 18.0474L4.42339 18.1691C4.39635 18.2051 4.44232 18.2691 4.84255 18.2367C4.99396 18.2244 5.28038 18.2059 5.62795 18.1835C6.42878 18.1319 7.55427 18.0593 8.10115 17.9933C8.88538 17.8987 12.3738 18.9668 11.9006 19.5347C11.522 19.989 10.9406 22.1218 10.6972 23.1314C10.6026 24.3753 10.2943 27.3878 9.81834 29.4863C9.22341 32.1094 6.45157 33.786 5.73494 33.5832C5.16165 33.421 4.11691 29.6936 3.66621 27.8502C3.24435 27.2337 3.32818 23.5099 3.42283 21.7251C3.52198 20.7651 3.87984 18.4557 4.51804 16.8981C5.0836 15.5177 6.46467 15.8907 7.63021 16.2055C8.10871 16.3347 8.55088 16.4541 8.88538 16.4384C10.0347 16.3843 13.442 18.3313 14.2398 18.8451C15.0375 19.3589 16.9981 19.4942 17.7282 19.3319C18.3123 19.2021 18.882 18.2502 19.0939 17.7905C19.7384 16.524 21.0761 13.8017 21.2708 13.0446ZM39.0916 33.5698C39.8164 33.6779 39.3936 34.6965 39.0916 35.1923L37.8747 36.9095V38.3968L38.0235 38.5726L39.0916 37.234L40.7547 35.7872L42.2691 34.2999L42.6612 33.2453C42.535 32.2988 42.2799 30.3734 42.2691 30.2435C42.2556 30.0813 42.4043 28.6345 42.6612 28.4047C42.8667 28.2208 43.1525 28.7247 43.2697 28.9996C43.5085 30.4689 43.989 33.44 43.9998 33.5698C44.0075 33.6614 43.4803 34.4517 42.9664 35.2221C42.5704 35.8158 42.1822 36.3978 42.0528 36.6391C41.8148 37.0826 39.9795 38.9602 39.0916 39.8436L36.6849 41.6013L36.1846 40.3168C36.0178 40.1275 35.6951 39.6083 35.468 39.0999C35.2687 38.654 35.7086 37.8285 36.0496 37.1888C36.1944 36.917 36.3214 36.6787 36.3739 36.5174C36.5145 36.0847 37.433 35.3005 37.8747 34.9624L38.997 33.5698C38.7266 33.5247 38.3669 33.4616 39.0916 33.5698ZM35.7384 16.114C36.3739 15.1495 37.6584 13.1393 37.7125 12.8148C37.7666 12.4903 37.9243 11.039 37.9964 10.3539C37.5773 10.7956 36.6119 11.7493 36.1035 12.0306C35.468 12.3821 33.3316 13.1528 30.7356 12.4092C30.4138 12.317 30.1179 12.2298 29.8447 12.1492C27.9137 11.5801 27.1112 11.3436 26.2465 12.0306C25.4569 12.658 24.1688 14.5725 23.6234 15.4514L21.5141 19.359C20.9868 19.9495 19.7023 21.1547 18.7829 21.252C17.6336 21.3737 16.2274 21.4413 15.1051 21.0221C14.2073 20.6868 13.5321 20.3867 13.3068 20.2785C12.802 20.8554 11.7573 22.4662 11.6166 24.2943C11.4409 26.5793 10.6431 30.5951 10.3456 31.2036C10.0482 31.812 9.03409 33.678 8.52028 33.9484C8.10924 34.1647 7.1231 34.8949 6.68141 35.2329C6.70413 35.2678 6.72701 35.3029 6.75004 35.3382C7.46271 36.4323 8.33018 37.7639 9.60198 39.0729C11.1498 40.6659 12.1783 41.4419 14.1045 42.5478C15.5724 43.3906 17.7147 44.211 18.0662 44.3056C18.3475 44.3813 19.3192 44.6166 19.7699 44.7248L21.5141 41.696L23.8668 39.0729C23.5062 37.4639 22.6012 34.0836 21.8657 33.4346C21.1301 32.7856 18.8279 28.9456 17.7688 27.1067C17.4713 27.6701 16.9277 29.0375 17.1333 30.0002C17.3388 30.9629 18.1474 34.3856 18.526 35.9766L18.8369 38.1399L18.526 40.3169L18.0662 41.5608C18.1113 40.2673 18.1744 37.5802 18.0662 37.1799C17.9581 36.7797 17.264 34.3089 16.9305 33.1236C16.651 32.3529 16.1327 30.441 16.295 28.9591C16.4978 27.1067 18.6612 24.105 19.7023 23.8346C19.9592 23.6182 20.5866 23.2504 21.0409 23.51C21.6088 23.8346 22.7986 24.9568 22.9609 25.1731C23.1231 25.3895 24.3265 26.336 24.4347 26.3901C24.457 26.4012 24.4861 26.4192 24.5213 26.441C24.6575 26.5251 24.8856 26.666 25.1648 26.6875C25.1977 26.69 25.2355 26.6935 25.2773 26.6973C25.6833 26.7346 26.4699 26.8068 26.8009 26.3901C26.9206 26.2394 27.033 26.0276 27.151 25.8054C27.393 25.3496 27.6585 24.8495 28.0584 24.7405C28.3445 24.6624 28.6806 24.6032 28.9616 24.5536C29.2647 24.5002 29.5036 24.4581 29.5457 24.416C29.6268 24.3348 29.8837 23.9022 29.8296 23.6993C29.7756 23.4965 29.8026 23.4424 30.1542 23.4154C30.5057 23.3884 31.006 23.2261 31.1006 22.9557C31.1764 22.7393 31.3666 22.2886 31.4522 22.0903C31.673 22.1624 32.1553 22.3121 32.3175 22.3337C32.5204 22.3607 33.1694 22.3607 33.3452 22.2661C33.5209 22.1714 33.7778 21.0086 33.7778 20.941C33.7778 20.8734 33.8725 19.1157 34.1294 18.7912C34.3349 18.5315 34.8099 17.5833 35.0218 17.1416C35.1345 16.8937 35.1381 16.3033 34.2511 15.9247C33.3641 15.5461 32.4437 15.2171 32.0877 15.1134L31.8713 14.9917C31.8713 14.9917 32.5204 14.824 32.6285 14.8565C32.7367 14.8889 33.6111 15.0593 34.0347 15.1404L35.7384 16.114Z" fill="#176DEA"/>
<path d="M22.9474 44.964C22.8096 44.964 21.5917 44.6939 21 44.5589C21.6624 42.115 22.762 40.8323 23.4641 39.9816C23.9754 39.3621 25.9414 37.7132 26.9218 37.0111L26.0342 36.3225C25.8664 36.1335 25.5016 35.669 25.385 35.3233C25.2393 34.8912 25.6367 34.4997 25.6897 34.3782C25.7427 34.2566 25.6235 33.7976 25.597 33.6355C25.5758 33.5059 25.6147 33.4285 25.6367 33.406C25.8001 33.46 26.1084 33.5356 26.0342 33.406C25.9414 33.244 25.6235 32.5418 25.6367 32.3258C25.65 32.1098 26.2064 31.7857 26.2859 31.6237C26.3654 31.4616 26.1799 31.4346 26.0342 31.1241C25.9176 30.8756 25.9856 30.6335 26.0342 30.5435L27.3192 29.8279L27.6504 29.5983L27.8226 28.3291C27.8933 27.969 28.175 27.0356 28.7367 26.1822C29.4389 25.1155 31.9294 23.8868 35.6918 24.0083C38.7017 24.1056 40.7701 26.2092 41.4281 27.2489C41.9262 27.4974 41.883 28.7207 41.7991 29.3013L41.9978 31.9612C42.0402 33.5707 41.4679 34.2161 41.1764 34.3376L38.7256 36.444L38.7786 36.201L39.2555 35.4853L39.5999 34.8777C39.6485 34.7337 39.7536 34.3322 39.7854 33.8786C39.8172 33.4249 39.5867 33.0414 39.4674 32.9064C39.2555 32.6147 38.9729 32.6679 38.858 32.7309C38.6249 32.8389 38.4253 33.2169 38.3546 33.3925C37.8883 34.1486 37.6481 34.2386 37.5863 34.1891C37.4803 34.1675 37.4803 33.9101 37.4935 33.784C37.4193 33.4168 37.1623 33.253 37.0431 33.2169L36.9106 33.1764L36.3807 33.1899L35.9965 33.3385L35.6918 33.568C35.683 33.604 35.6627 33.6841 35.6521 33.7165C35.6415 33.7489 35.7536 33.757 35.811 33.757C36.1157 33.685 36.7622 33.568 36.9106 33.676C37.0961 33.8111 37.0166 34.2296 36.9636 34.4457C36.9106 34.6617 36.7251 34.8102 36.5132 35.0128C36.3436 35.1748 35.8508 35.3233 35.6256 35.3773C35.0162 35.5124 34.9499 35.3908 34.8042 35.3773C34.6876 35.3665 34.5172 35.1928 34.4465 35.1073C34.3891 34.9813 34.2505 34.7265 34.1551 34.7157C34.0597 34.7049 33.9828 34.9362 33.9564 35.0533C33.9034 35.5529 34.3008 35.8229 34.6055 35.8904C34.8493 35.9444 35.5284 35.7239 35.8375 35.6069H36.235C35.9921 35.9489 35.464 36.6925 35.2944 36.9301C35.1248 37.1677 34.7998 37.9833 34.6585 38.3613C34.4333 38.2668 33.914 38.0535 33.6384 37.9563C33.3629 37.8591 32.7287 37.9968 32.4461 38.0778L30.5914 38.7799C30.1322 38.9735 29.2507 39.3713 29.3991 39.4145C29.5475 39.4577 30.0438 39.3515 30.2735 39.293C31.0242 38.996 32.7058 38.4046 33.4264 38.4154C34.1471 38.4262 34.8837 39.149 35.1619 39.509C35.7316 39.9006 35.8375 41.5884 35.5858 42.088C35.3341 42.5876 33.7046 43.1142 32.2341 43.8028C31.0577 44.3537 28.7941 44.7615 27.8094 44.8965C27.8094 44.8965 27.7166 44.9235 27.5312 44.9235C27.3457 44.9235 27.4649 44.7615 27.4649 44.7615C27.4649 44.7615 27.7299 44.3834 27.8094 44.2889C27.9328 44.1421 29.0414 43.3437 29.2136 43.2222C29.3859 43.1007 30.2205 42.9116 30.4192 42.8846C30.6179 42.8576 31.5188 43.2222 31.6512 43.3437C31.7837 43.4652 32.3799 43.5057 32.4726 43.4517C32.5653 43.3977 32.4461 43.1412 32.3799 43.0332C32.3136 42.9251 31.8632 42.6956 31.691 42.5876C31.5188 42.4796 30.7769 42.385 30.6312 42.358C30.4854 42.331 30.4059 41.0888 30.3397 41.0483C30.2735 41.0078 30.1542 41.4129 30.088 41.5209C30.035 41.6073 30.0659 42.223 30.088 42.5201C29.9732 42.5786 29.4998 42.7928 28.5248 43.1817C27.306 43.6678 26.988 44.883 26.882 44.964C26.776 45.045 23.1196 44.964 22.9474 44.964Z" fill="#176DEA"/>
</svg>
