<svg width="24" height="24" viewBox="0 0 24 24" fill="none" xmlns="http://www.w3.org/2000/svg">
<path fill-rule="evenodd" clip-rule="evenodd" d="M16.469 16.4689C16.7623 16.1756 16.7624 15.7001 16.4691 15.4068L8.59409 7.53181C8.30079 7.23851 7.82525 7.23851 7.53194 7.53181C7.23864 7.82512 7.23864 8.30065 7.53194 8.59396L15.4069 16.4689C15.7002 16.7622 16.1757 16.7622 16.469 16.4689Z" fill="#292C33"/>
<path fill-rule="evenodd" clip-rule="evenodd" d="M16.4689 7.53187C16.1756 7.23858 15.7001 7.23856 15.4068 7.53186L7.53181 15.4068C7.23851 15.7001 7.23851 16.1757 7.53181 16.469C7.82512 16.7623 8.30065 16.7623 8.59396 16.469L16.4689 8.594C16.7622 8.3007 16.7622 7.82517 16.4689 7.53187Z" fill="#292C33"/>
</svg>
