<svg width="24" height="24" viewBox="0 0 24 24" fill="none" xmlns="http://www.w3.org/2000/svg">
<path fill-rule="evenodd" clip-rule="evenodd" d="M18.2567 5.74381C18.6673 6.15445 18.6674 6.82024 18.2567 7.23087L7.23114 18.2565C6.82049 18.6671 6.1547 18.6671 5.74406 18.2565C5.33341 17.8458 5.33341 17.18 5.74405 16.7694L16.7696 5.74379C17.1803 5.33315 17.8461 5.33318 18.2567 5.74381Z" fill="#292C33"/>
<path fill-rule="evenodd" clip-rule="evenodd" d="M18.2564 18.2562C17.8458 18.6669 17.18 18.6669 16.7694 18.2562L5.74378 7.23065C5.33314 6.82001 5.33314 6.15422 5.74379 5.74357C6.15443 5.33292 6.82022 5.33292 7.23087 5.74357L18.2565 16.7692C18.6671 17.1798 18.6671 17.8456 18.2564 18.2562Z" fill="#292C33"/>
</svg>
