<svg width="32" height="32" viewBox="0 0 32 32" fill="none" xmlns="http://www.w3.org/2000/svg">
<g clip-path="url(#clip0_3200_19533)">
<path d="M16 32C24.8366 32 32 24.8366 32 16C32 7.16344 24.8366 0 16 0C7.16344 0 0 7.16344 0 16C0 24.8366 7.16344 32 16 32Z" fill="white"/>
<path d="M14.0003 10.1666C11.8832 10.1666 10.167 11.8829 10.167 14V18.7379C10.167 19.014 10.3908 19.2379 10.667 19.2379C10.9431 19.2379 11.167 19.014 11.167 18.7379V14C11.167 12.4352 12.4355 11.1666 14.0003 11.1666H18.6756C18.9517 11.1666 19.1756 10.9428 19.1756 10.6666C19.1756 10.3905 18.9517 10.1666 18.6756 10.1666H14.0003Z" fill="#232327"/>
<path fill-rule="evenodd" clip-rule="evenodd" d="M20.2687 12.5288C18.1081 12.2873 15.8926 12.2873 13.732 12.5288C13.1165 12.5976 12.6218 13.082 12.5493 13.7023C12.293 15.8933 12.293 18.1067 12.5493 20.2976C12.6218 20.9179 13.1165 21.4023 13.732 21.4711C15.8926 21.7126 18.1081 21.7126 20.2687 21.4711C20.8842 21.4023 21.3788 20.9179 21.4514 20.2976C21.7076 18.1067 21.7076 15.8933 21.4514 13.7023C21.3788 13.082 20.8842 12.5976 20.2687 12.5288ZM13.8431 13.5226C15.9299 13.2894 18.0708 13.2894 20.1576 13.5226C20.3159 13.5403 20.4403 13.6654 20.4582 13.8184C20.7054 15.9322 20.7054 18.0677 20.4582 20.1815C20.4403 20.3345 20.3159 20.4596 20.1576 20.4773C18.0708 20.7105 15.9299 20.7105 13.8431 20.4773C13.6848 20.4596 13.5604 20.3345 13.5425 20.1815C13.2953 18.0677 13.2953 15.9323 13.5425 13.8184C13.5604 13.6654 13.6848 13.5403 13.8431 13.5226Z" fill="#232327"/>
</g>
<defs>
<clipPath id="clip0_3200_19533">
<rect width="32" height="32" fill="white"/>
</clipPath>
</defs>
</svg>
