<svg width="24" height="24" viewBox="0 0 24 24" fill="none" xmlns="http://www.w3.org/2000/svg">
<path d="M18 4.99902H6C4.34315 4.99902 3 6.34217 3 7.99902V15.999C3 17.6559 4.34315 18.999 6 18.999H18C19.6569 18.999 21 17.6559 21 15.999V7.99902C21 6.34217 19.6569 4.99902 18 4.99902Z" stroke="#176DEA" stroke-width="2" stroke-linecap="round"/>
<path d="M20.5246 6.85133C20.9948 6.56159 21.1411 5.94555 20.8513 5.47537C20.5616 5.00519 19.9455 4.85892 19.4754 5.14867L20.5246 6.85133ZM11.3729 10.7111L10.8826 11.5826L11.3729 10.7111ZM12.3879 10.6909L11.8633 9.83959L12.3879 10.6909ZM2.50963 6.87152L10.8826 11.5826L11.8633 9.83959L3.49037 5.12848L2.50963 6.87152ZM12.9125 11.5423L20.5246 6.85133L19.4754 5.14867L11.8633 9.83959L12.9125 11.5423ZM10.8826 11.5826C11.5162 11.9392 12.2935 11.9237 12.9125 11.5423L11.8633 9.83959L10.8826 11.5826Z" fill="#176DEA"/>
</svg>
