<svg width="24" height="24" viewBox="0 0 24 24" fill="none" xmlns="http://www.w3.org/2000/svg">
<path d="M4.55356 5.63979C4.74261 5.22891 5.16346 4.91736 5.47588 4.60479C6.37765 3.70288 7.87314 3.82639 8.61489 4.86392L9.35287 5.8964C9.94015 6.71816 9.84717 7.84391 9.13338 8.55777L9.07088 8.62029C8.68823 9.00293 8.49179 9.52875 8.71746 10.0208C9.00461 10.6464 9.62982 11.6386 10.9916 13.0008C12.3472 14.3569 13.3428 14.9891 13.9746 15.284C14.4765 15.518 15.0168 15.3208 15.4083 14.9291L15.4563 14.8812C16.1698 14.1674 17.2947 14.0746 18.1159 14.6609L19.1354 15.3894C20.1736 16.131 20.2973 17.6278 19.3953 18.5302C19.0826 18.843 18.7706 19.2646 18.3587 19.4523C17.3383 19.9181 13.0509 21.3847 7.83042 16.1628C2.60599 10.9368 4.08661 6.65413 4.55356 5.63979Z" stroke="#176DEA" stroke-width="2"/>
</svg>
