<svg width="19" height="18" viewBox="0 0 19 18" fill="none" xmlns="http://www.w3.org/2000/svg">
<path fill-rule="evenodd" clip-rule="evenodd" d="M10.0143 0C10.4399 0 10.7857 0.345857 10.7857 0.771429V7.71429H17.7286C18.1541 7.71429 18.5 8.06014 18.5 8.48571V9.51429C18.5 9.93986 18.1541 10.2857 17.7286 10.2857H10.7857V17.2286C10.7857 17.6541 10.4399 18 10.0143 18H8.98571C8.56014 18 8.21429 17.6541 8.21429 17.2286V10.2857H1.27143C0.845857 10.2857 0.5 9.93986 0.5 9.51429V8.48571C0.5 8.06014 0.845857 7.71429 1.27143 7.71429H8.21429V0.771429C8.21429 0.345857 8.56014 0 8.98571 0H10.0143V0Z" fill="#176DEA"/>
</svg>
