<svg width="20" height="19" viewBox="0 0 20 19" fill="none" xmlns="http://www.w3.org/2000/svg">
<path d="M9.17517 0.536594C9.57238 -0.0429788 10.4277 -0.0429777 10.8249 0.536595L13.5608 4.52864C13.6909 4.71837 13.8823 4.85748 14.103 4.92251L18.7451 6.29092C19.419 6.48959 19.6833 7.30306 19.2549 7.85992L16.3036 11.6956C16.1634 11.8778 16.0903 12.1029 16.0966 12.3329L16.2296 17.1706C16.249 17.873 15.557 18.3757 14.895 18.1403L10.3351 16.5188C10.1184 16.4418 9.88171 16.4418 9.66499 16.5188L5.10512 18.1403C4.4431 18.3757 3.75113 17.873 3.77045 17.1706L3.9035 12.3328C3.90983 12.1029 3.83669 11.8778 3.69643 11.6956L0.745217 7.85992C0.316755 7.30306 0.581067 6.48959 1.25502 6.29092L5.89713 4.92251C6.11775 4.85748 6.30921 4.71837 6.43924 4.52864L9.17517 0.536594Z" fill="#BBBCC4"/>
</svg>
