<svg width="32" height="32" viewBox="0 0 32 32" fill="none" xmlns="http://www.w3.org/2000/svg">
<g clip-path="url(#clip0_3200_19522)">
<path d="M16 32C24.8366 32 32 24.8366 32 16C32 7.16344 24.8366 0 16 0C7.16344 0 0 7.16344 0 16C0 24.8366 7.16344 32 16 32Z" fill="#40B3E0"/>
<path d="M25.0191 8.60244L21.9056 24.2998C21.9056 24.2998 21.4702 25.3884 20.2728 24.8659L13.0882 19.3577L10.4757 18.095L6.07794 16.6144C6.07794 16.6144 5.40303 16.375 5.33766 15.8525C5.2723 15.33 6.09973 15.047 6.09973 15.047L23.5819 8.189C23.5819 8.189 25.0189 7.55767 25.0189 8.60272" fill="white"/>
<path d="M12.537 24.1227C12.537 24.1227 12.3272 24.1031 12.0658 23.2756C11.8047 22.4483 10.4766 18.0941 10.4766 18.0941L21.0357 11.3886C21.0357 11.3886 21.6453 11.0185 21.6236 11.3886C21.6236 11.3886 21.7324 11.454 21.4057 11.7588C21.0792 12.0637 13.111 19.2263 13.111 19.2263" fill="#D2E5F1"/>
<path d="M15.842 21.4688L13.0003 24.0597C13.0003 24.0597 12.7781 24.2283 12.5352 24.1227L13.0793 19.3101" fill="#B5CFE4"/>
</g>
<defs>
<clipPath id="clip0_3200_19522">
<rect width="32" height="32" fill="white"/>
</clipPath>
</defs>
</svg>
