<svg width="192" height="111" viewBox="0 0 192 111" fill="none" xmlns="http://www.w3.org/2000/svg">
<g opacity="0.2">
<path d="M40.2329 55.2823L40.4408 55.3976C44.5563 57.7541 46.8011 62.1214 46.1637 66.5655L45.845 68.8067L49.905 82.0238C51.3877 86.8777 55.1013 90.8864 60.0482 93.0124L68.4316 96.5984C78.5748 100.953 86.1683 109.175 89.2168 119.126C91.1152 125.338 87.4985 131.844 80.9304 134.034L59.6463 141.116C55.5031 142.5 53.4246 146.777 55.0597 150.555L59.7711 161.429L87.5401 152.079" stroke="#F3F8FF" stroke-width="4" stroke-miterlimit="10" stroke-linecap="round" stroke-linejoin="round"/>
<path d="M51.3326 108.163C50.7367 108.24 50.1409 108.304 49.5728 108.343C39.9285 109.124 30.5474 105.064 24.5889 98.0201C12.3395 83.5095 3 92.577 3 92.577C3 92.577 13.1155 103.783 20.0023 114.849C24.9076 122.738 32.8892 128.745 42.4365 130.947C43.0324 131.088 43.6282 131.216 44.2517 131.332C50.515 132.523 55.7391 136.301 58.649 141.385" stroke="#F3F8FF" stroke-width="4" stroke-miterlimit="10" stroke-linecap="round"/>
<path d="M12.1597 89.9003L7.98877 72.2647L20.2381 37.4931C20.2381 37.4931 27.2636 39.1196 25.4483 49.0452L19.8917 71.6628L23.6885 85.9556" stroke="#F3F8FF" stroke-width="4" stroke-miterlimit="10" stroke-linecap="round"/>
<path d="M24.6582 41.1688L27.9423 31.7811C27.9423 31.7811 37.0462 34.8676 33.97 46.074L28.8707 70.6254L32.9308 83.9065" stroke="#F3F8FF" stroke-width="4" stroke-miterlimit="10" stroke-linecap="round"/>
<path d="M34.5933 41.1304L35.0506 41.4506C39.3323 44.3578 41.4386 49.263 40.4686 54.0913L37.5171 68.6274L41.7296 82.1519" stroke="#F3F8FF" stroke-width="4" stroke-miterlimit="10" stroke-linecap="round"/>
<path d="M151.78 55.2823L151.572 55.3976C147.457 57.7541 145.212 62.1214 145.85 66.5655L146.168 68.8067L142.108 82.0238C140.626 86.8777 136.912 90.8864 131.965 93.0124L123.582 96.5984C113.439 100.953 105.845 109.175 102.797 119.126C100.898 125.338 104.515 131.844 111.083 134.034L132.367 141.116C136.51 142.5 138.589 146.777 136.954 150.555L132.242 161.429L104.473 152.079" stroke="#F3F8FF" stroke-width="4" stroke-miterlimit="10" stroke-linecap="round" stroke-linejoin="round"/>
<path d="M140.667 108.163C141.263 108.24 141.859 108.304 142.427 108.343C152.057 109.124 161.452 105.064 167.411 98.0201C179.66 83.5095 189 92.577 189 92.577C189 92.577 178.884 103.783 171.997 114.849C167.092 122.738 159.11 128.745 149.563 130.947C148.967 131.088 148.371 131.216 147.748 131.332C141.485 132.523 136.261 136.301 133.351 141.385" stroke="#F3F8FF" stroke-width="4" stroke-miterlimit="10" stroke-linecap="round"/>
<path d="M179.854 89.9003L184.025 72.2647L171.775 37.4931C171.775 37.4931 164.75 39.1196 166.565 49.0452L172.122 71.6628L168.325 85.9556" stroke="#F3F8FF" stroke-width="4" stroke-miterlimit="10" stroke-linecap="round"/>
<path d="M167.341 41.1688L164.057 31.7811C164.057 31.7811 154.953 34.8676 158.029 46.074L163.129 70.6254L159.069 83.9065" stroke="#F3F8FF" stroke-width="4" stroke-miterlimit="10" stroke-linecap="round"/>
<path d="M157.406 41.1304L156.949 41.4505C152.667 44.3578 150.561 49.2629 151.531 54.0913L154.482 68.6274L150.27 82.1518" stroke="#F3F8FF" stroke-width="4" stroke-miterlimit="10" stroke-linecap="round"/>
<path d="M96.0069 15.0549C96.0069 15.0549 102.533 1.13337 117.43 2.04268C125.356 2.51655 132.492 6.84542 136.15 13.3643C138.506 17.5779 139.878 23.3283 137.356 30.5259C136.441 33.1258 135.097 35.572 133.42 37.8132C132.769 38.6841 132.076 39.5166 131.342 40.3107C128.058 43.8327 121.822 49.4935 115.587 54.3474C115.587 54.3474 99.7205 66.1044 96.0207 73.8784C92.321 66.1044 76.4549 54.3474 76.4549 54.3474C70.2194 49.4935 63.97 43.8327 60.6997 40.3107C59.9515 39.5166 59.2586 38.6713 58.6212 37.8132C56.9445 35.572 55.6004 33.1258 54.6859 30.5259C52.1639 23.3283 53.5358 17.5779 55.8915 13.3643C59.5497 6.84542 66.672 2.52936 74.6119 2.04268C89.4803 1.13337 96.0069 15.0549 96.0069 15.0549Z" stroke="#F3F8FF" stroke-width="4" stroke-miterlimit="10" stroke-linecap="round"/>
<path d="M65.2285 17.9809L65.2299 17.9784C67.1437 14.5595 70.9743 12.203 75.2585 11.9421C75.5388 11.9291 75.7644 11.9192 75.9697 11.9192C77.3929 11.9192 78.6693 12.2243 79.8055 12.718C74.4255 17.8804 71.0592 24.9325 71.0459 32.7511V32.7545C71.0459 34.0159 71.1359 35.2579 71.3084 36.4753C70.2323 35.4404 69.3274 34.528 68.6412 33.7939C68.172 33.2776 67.7031 32.7149 67.2471 32.1062C66.1159 30.596 65.2733 29.0213 64.707 27.4181C63.441 23.7801 63.6654 20.7641 65.2285 17.9809Z" stroke="#F3F8FF" stroke-width="4"/>
</g>
</svg>
