<svg width="32" height="32" viewBox="0 0 32 32" fill="none" xmlns="http://www.w3.org/2000/svg">
<g clip-path="url(#clip0_3200_19530)">
<path d="M16.004 0H15.996C7.174 0 0 7.176 0 16C0 19.5 1.128 22.744 3.046 25.378L1.052 31.322L7.202 29.356C9.732 31.032 12.75 32 16.004 32C24.826 32 32 24.822 32 16C32 7.178 24.826 0 16.004 0Z" fill="#67E383"/>
<path d="M25.3131 22.5941C24.9271 23.6841 23.3951 24.5881 22.1731 24.8521C21.3371 25.0301 20.2451 25.1721 16.5691 23.6481C11.8671 21.7001 8.83913 16.9221 8.60313 16.6121C8.37713 16.3021 6.70312 14.0821 6.70312 11.7861C6.70312 9.49012 7.86913 8.37212 8.33913 7.89212C8.72513 7.49812 9.36312 7.31812 9.97512 7.31812C10.1731 7.31812 10.3511 7.32812 10.5111 7.33612C10.9811 7.35612 11.2171 7.38412 11.5271 8.12612C11.9131 9.05612 12.8531 11.3521 12.9651 11.5881C13.0791 11.8241 13.1931 12.1441 13.0331 12.4541C12.8831 12.7741 12.7511 12.9161 12.5151 13.1881C12.2791 13.4601 12.0551 13.6681 11.8191 13.9601C11.6031 14.2141 11.3591 14.4861 11.6311 14.9561C11.9031 15.4161 12.8431 16.9501 14.2271 18.1821C16.0131 19.7721 17.4611 20.2801 17.9791 20.4961C18.3651 20.6561 18.8251 20.6181 19.1071 20.3181C19.4651 19.9321 19.9071 19.2921 20.3571 18.6621C20.6771 18.2101 21.0811 18.1541 21.5051 18.3141C21.9371 18.4641 24.2231 19.5941 24.6931 19.8281C25.1631 20.0641 25.4731 20.1761 25.5871 20.3741C25.6991 20.5721 25.6991 21.5021 25.3131 22.5941Z" fill="#FAFAFA"/>
</g>
<defs>
<clipPath id="clip0_3200_19530">
<rect width="32" height="32" fill="white"/>
</clipPath>
</defs>
</svg>
