<svg width="24" height="24" viewBox="0 0 24 24" fill="none" xmlns="http://www.w3.org/2000/svg">
<path fill-rule="evenodd" clip-rule="evenodd" d="M19.8749 19.8745C19.2536 20.4958 18.2463 20.4958 17.6249 19.8745L4.12472 6.37431C3.50339 5.75298 3.50339 4.7456 4.12472 4.12427C4.74605 3.50294 5.75343 3.50294 6.37476 4.12427L19.875 17.6245C20.4963 18.2458 20.4963 19.2532 19.8749 19.8745Z" fill="white"/>
<path fill-rule="evenodd" clip-rule="evenodd" d="M4.12405 19.874C3.50273 19.2526 3.50269 18.2453 4.124 17.624L17.6242 4.12375C18.2456 3.50241 19.2529 3.50241 19.8743 4.12375C20.4956 4.74508 20.4956 5.75245 19.8743 6.37378L6.37404 19.874C5.75272 20.4953 4.74536 20.4953 4.12405 19.874Z" fill="white"/>
</svg>
